<?xml version="1.0"?>


<svg version="1.1" id="svg1" width="1333.3333" height="1333.3333" viewBox="0 0 1333.3333 1333.3333" xmlns:inkscape="http://www.inkscape.org/namespaces/inkscape" xmlns:sodipodi="http://sodipodi.sourceforge.net/DTD/sodipodi-0.dtd" xmlns:xlink="http://www.w3.org/1999/xlink" xmlns="http://www.w3.org/2000/svg" xmlns:svg="http://www.w3.org/2000/svg">
  <defs id="defs1">
    <color-profile name="sRGB IEC61966-2.1" id="color-profile1"></color-profile>
    <radialGradient fx="0" fy="0" cx="0" cy="0" r="1" gradientUnits="userSpaceOnUse" gradientTransform="matrix(134.00035,0,0,-134.00035,319.55762,492.7002)" spreadMethod="pad" id="radialGradient2">
      <stop style="stop-opacity:1;stop-color:#5fc1cc icc-color(sRGB IEC61966-2.1, 0.37254333, 0.7568512, 0.79998779);" offset="0" id="stop1"></stop>
      <stop style="stop-opacity:1;stop-color:#0373a1 icc-color(sRGB IEC61966-2.1, 0.01176453, 0.45097351, 0.63136292);" offset="1" id="stop2"></stop>
    </radialGradient>
    <radialGradient fx="0" fy="0" cx="0" cy="0" r="1" gradientUnits="userSpaceOnUse" gradientTransform="matrix(113.99977,0,0,-113.99977,403.55811,530.7002)" spreadMethod="pad" id="radialGradient4">
      <stop style="stop-opacity:1;stop-color:#89c541 icc-color(sRGB IEC61966-2.1, 0.5372467, 0.77253723, 0.25489807);" offset="0" id="stop3"></stop>
      <stop style="stop-opacity:1;stop-color:#5fac44 icc-color(sRGB IEC61966-2.1, 0.37254333, 0.67449951, 0.2666626);" offset="1" id="stop4"></stop>
    </radialGradient>
    <linearGradient x1="0" y1="0" x2="1" y2="0" gradientUnits="userSpaceOnUse" gradientTransform="matrix(-192.79527,333.93115,333.93115,192.79527,266.01465,367.20312)" spreadMethod="pad" id="linearGradient6">
      <stop style="stop-opacity:1;stop-color:#1ac549 icc-color(sRGB IEC61966-2.1, 0.10195923, 0.77253723, 0.28627014);" offset="0" id="stop5"></stop>
      <stop style="stop-opacity:1;stop-color:#0b65f7 icc-color(sRGB IEC61966-2.1, 0.0431366, 0.39607239, 0.96861267);" offset="1" id="stop6"></stop>
    </linearGradient>
    <clipPath clipPathUnits="userSpaceOnUse" id="clipPath8">
      <path d="M 0,1000 H 1000 V 0 H 0 Z" transform="translate(-662.53322,-488.11231)" id="path8"></path>
    </clipPath>
    <clipPath clipPathUnits="userSpaceOnUse" id="clipPath10">
      <path d="M 0,1000 H 1000 V 0 H 0 Z" transform="translate(-914.35742,-437.16021)" id="path10"></path>
    </clipPath>
    <clipPath clipPathUnits="userSpaceOnUse" id="clipPath12">
      <path d="M 0,1000 H 1000 V 0 H 0 Z" transform="translate(-117.6973,-342.24611)" id="path12"></path>
    </clipPath>
    <clipPath clipPathUnits="userSpaceOnUse" id="clipPath14">
      <path d="M 0,1000 H 1000 V 0 H 0 Z" transform="translate(-161.29101,-329.92971)" id="path14"></path>
    </clipPath>
    <clipPath clipPathUnits="userSpaceOnUse" id="clipPath16">
      <path d="M 0,1000 H 1000 V 0 H 0 Z" transform="translate(-202.28221,-361.69821)" id="path16"></path>
    </clipPath>
    <clipPath clipPathUnits="userSpaceOnUse" id="clipPath18">
      <path d="M 0,1000 H 1000 V 0 H 0 Z" transform="translate(-224.9785,-329.79301)" id="path18"></path>
    </clipPath>
    <clipPath clipPathUnits="userSpaceOnUse" id="clipPath20">
      <path d="M 0,1000 H 1000 V 0 H 0 Z" transform="translate(-216.0967,-367.55371)" id="path20"></path>
    </clipPath>
    <clipPath clipPathUnits="userSpaceOnUse" id="clipPath22">
      <path d="M 0,1000 H 1000 V 0 H 0 Z" transform="translate(-260.2192,-360.91601)" id="path22"></path>
    </clipPath>
    <clipPath clipPathUnits="userSpaceOnUse" id="clipPath24">
      <path d="M 0,1000 H 1000 V 0 H 0 Z" transform="translate(-290.00631,-344.12991)" id="path24"></path>
    </clipPath>
    <clipPath clipPathUnits="userSpaceOnUse" id="clipPath26">
      <path d="M 0,1000 H 1000 V 0 H 0 Z" transform="translate(-341.95511,-329.92971)" id="path26"></path>
    </clipPath>
    <clipPath clipPathUnits="userSpaceOnUse" id="clipPath28">
      <path d="M 0,1000 H 1000 V 0 H 0 Z" transform="translate(-402.53121,-329.92971)" id="path28"></path>
    </clipPath>
    <clipPath clipPathUnits="userSpaceOnUse" id="clipPath30">
      <path d="M 0,1000 H 1000 V 0 H 0 Z" transform="translate(-417.29001,-347.35161)" id="path30"></path>
    </clipPath>
    <clipPath clipPathUnits="userSpaceOnUse" id="clipPath32">
      <path d="M 0,1000 H 1000 V 0 H 0 Z" transform="translate(-483.52731,-329.92971)" id="path32"></path>
    </clipPath>
    <clipPath clipPathUnits="userSpaceOnUse" id="clipPath34">
      <path d="M 0,1000 H 1000 V 0 H 0 Z" transform="translate(-513.07031,-337.43851)" id="path34"></path>
    </clipPath>
    <clipPath clipPathUnits="userSpaceOnUse" id="clipPath36">
      <path d="M 0,1000 H 1000 V 0 H 0 Z" transform="translate(-582.04301,-378.91501)" id="path36"></path>
    </clipPath>
    <clipPath clipPathUnits="userSpaceOnUse" id="clipPath38">
      <path d="M 0,1000 H 1000 V 0 H 0 Z" transform="translate(-597.57622,-347.35161)" id="path38"></path>
    </clipPath>
    <clipPath clipPathUnits="userSpaceOnUse" id="clipPath40">
      <path d="M 0,1000 H 1000 V 0 H 0 Z" transform="translate(-655.16801,-338.17291)" id="path40"></path>
    </clipPath>
    <clipPath clipPathUnits="userSpaceOnUse" id="clipPath42">
      <path d="M 0,1000 H 1000 V 0 H 0 Z" transform="translate(-699.49022,-329.86131)" id="path42"></path>
    </clipPath>
    <clipPath clipPathUnits="userSpaceOnUse" id="clipPath44">
      <path d="M 0,1000 H 1000 V 0 H 0 Z" transform="translate(-743.13872,-329.92971)" id="path44"></path>
    </clipPath>
    <clipPath clipPathUnits="userSpaceOnUse" id="clipPath46">
      <path d="M 0,1000 H 1000 V 0 H 0 Z" transform="translate(-772.79394,-344.12991)" id="path46"></path>
    </clipPath>
    <clipPath clipPathUnits="userSpaceOnUse" id="clipPath48">
      <path d="M 0,1000 H 1000 V 0 H 0 Z" transform="translate(-804.9307,-329.79301)" id="path48"></path>
    </clipPath>
    <clipPath clipPathUnits="userSpaceOnUse" id="clipPath50">
      <path d="M 0,1000 H 1000 V 0 H 0 Z" transform="translate(-835.79882,-344.12991)" id="path50"></path>
    </clipPath>
    <clipPath clipPathUnits="userSpaceOnUse" id="clipPath52">
      <path d="M 0,1000 H 1000 V 0 H 0 Z" transform="translate(-862.28612,-358.52051)" id="path52"></path>
    </clipPath>
    <clipPath clipPathUnits="userSpaceOnUse" id="clipPath54">
      <path d="M 0,1000 H 1000 V 0 H 0 Z" transform="translate(-923.7061,-361.11721)" id="path54"></path>
    </clipPath>
  </defs>
  <namedview id="namedview1" pagecolor="#ffffff" bordercolor="#000000" borderopacity="0.25">
    <page x="0" y="0" id="page1" width="1333.3333" height="1333.3333" margin="423.75601 101.15466 424.49866 101.15427" bleed="0"></page>
  </namedview>
  <g id="layer-MC0">
    <path id="path2" d="m 346.493,569.367 c -7.666,-9.334 -44.334,-56 -18,-106.667 v 0 c 26.333,-50.666 75.333,-58.667 100.667,-59.334 v 0 c 0,0.001 -20.478,19.107 -35.584,51.834 v 0 c -19.42,42.077 -31.291,106.063 6.584,174.5 v 0 c 0,0 -46.001,-51 -53.667,-60.333" transform="matrix(1.3333333,0,0,-1.3333333,0,1333.3333)" style="fill:url(#radialGradient2);stroke:none"></path>
    <path id="path4" d="m 393.16,547.7 c 4.295,-48.475 25.333,-98.167 82,-132.666 v 0 c 0,0 57.999,24.333 57.666,90 v 0 c -0.176,34.865 -25.933,64.454 -52,91.999 v 0 c -23.029,24.334 -46.087,47.941 -55,59.667 v 0 c 0,0 -37.333,-56.333 -32.666,-109" transform="matrix(1.3333333,0,0,-1.3333333,0,1333.3333)" style="fill:url(#radialGradient4);stroke:none"></path>
    <path id="path6" d="M 79.385,681.626 V 559.03 h 101.582 c 15.083,0 26.153,1.037 32.893,3.078 v 0 c 9.135,2.709 16.15,7.344 20.846,13.776 v 0 c 4.685,6.416 7.059,14.469 7.059,23.934 v 0 c 0,9.027 -2.201,17.05 -6.527,23.822 v 0 c -4.388,7.032 -10.747,11.899 -18.905,14.469 v 0 c -7.867,2.477 -20.79,3.681 -39.51,3.681 v 0 h -53.696 v -48.698 h 15.683 v 33.018 h 38.013 c 21.005,0 30.517,-1.607 34.799,-2.955 v 0 c 4.554,-1.434 7.928,-3.991 10.325,-7.834 v 0 l 0.06,-0.094 c 2.746,-4.298 4.079,-9.337 4.079,-15.409 v 0 c 0,-6.157 -1.324,-10.961 -4.044,-14.688 v 0 c -2.658,-3.643 -6.794,-6.256 -12.709,-8.01 v 0 c -3.631,-1.098 -11.499,-2.41 -28.366,-2.41 v 0 H 138.81 v 0.079 H 95.064 v 91.156 h 92.592 c 18.959,0 34.311,-2.508 45.624,-7.455 v 0 c 11.132,-4.889 19.963,-12.524 26.265,-22.709 v 0 c 6.352,-10.113 9.569,-20.897 9.569,-32.056 v 0 c 0,-10.239 -2.825,-20.058 -8.402,-29.184 v 0 c -5.552,-9.082 -14.124,-16.552 -25.481,-22.202 v 0 l -6.501,-3.234 6.971,-2.037 c 14.746,-4.31 26.181,-11.739 34,-22.087 v 0 c 7.861,-10.277 11.846,-22.641 11.846,-36.756 v 0 c 0,-11.407 -2.451,-22.178 -7.287,-32.015 v 0 c -4.792,-9.759 -10.782,-17.382 -17.791,-22.657 v 0 c -7.1,-5.279 -16.125,-9.341 -26.829,-12.073 v 0 c -10.911,-2.773 -24.499,-4.174 -40.388,-4.174 v 0 H 95.064 v 101.878 l 89.748,0.011 c 14.758,0 25.916,-1.217 33.171,-3.618 v 0 c 5.977,-1.968 10.452,-5.201 13.723,-9.949 v 0 c 3.389,-4.855 5.034,-10.568 5.034,-17.461 v 0 c 0,-6.031 -1.137,-11.056 -3.475,-15.366 v 0 c -2.332,-4.292 -5.069,-7.382 -8.368,-9.446 v 0 c -3.769,-2.353 -8.767,-4.094 -14.851,-5.17 v 0 l -0.117,-0.023 c -2.054,-0.38 -7.464,-1.022 -20.615,-1.022 v 0 H 138.81 v 43.738 h -15.683 v -59.419 h 66.187 c 11.148,0 18.831,0.422 23.464,1.285 v 0 c 8.075,1.428 14.947,3.889 20.428,7.315 v 0 c 5.578,3.487 10.233,8.622 13.838,15.264 v 0 c 3.566,6.571 5.376,14.255 5.376,22.844 v 0 c 0,10.069 -2.642,18.962 -7.842,26.417 v 0 c -5.176,7.51 -12.475,12.856 -21.694,15.886 v 0 c -8.828,2.922 -21.636,4.405 -38.072,4.405 v 0 H 79.385 V 401.624 h 109.867 c 17.187,0 32.078,1.567 44.265,4.663 v 0 c 12.694,3.241 23.566,8.183 32.363,14.728 v 0 c 9.011,6.777 16.563,16.29 22.453,28.276 v 0 c 5.903,12.012 8.896,25.112 8.896,38.934 v 0 c 0,17.626 -5.066,33.189 -15.045,46.244 v 0 c -5.295,6.999 -11.876,12.969 -19.608,17.782 v 0 c 4.527,4.266 8.388,8.999 11.514,14.114 v 0 c 7.105,11.623 10.706,24.194 10.706,37.36 v 0 c 0,14.143 -4.021,27.724 -11.945,40.352 v 0 c -7.993,12.904 -19.189,22.585 -33.285,28.777 v 0 c -13.5,5.903 -30.48,8.772 -51.91,8.772 v 0 z" transform="matrix(1.3333333,0,0,-1.3333333,0,1333.3333)" style="fill:url(#linearGradient6);stroke:none"></path>
    <path id="path7" d="m 0,0 h -66.81 l 33.511,83.136 z m -14.224,128.473 -1.138,2.772 h -2.996 -28.566 -2.992 l -1.14,-2.767 -84.923,-206.131 -2.542,-6.171 h 6.673 28.311 3.016 l 1.127,2.795 19.456,48.157 h 93.046 l 19.46,-48.157 1.129,-2.795 h 3.015 29.595 6.667 l -2.533,6.167 z" style="fill:#0071c1;fill-opacity:1;fill-rule:nonzero;stroke:none" transform="matrix(1.3333333,0,0,-1.3333333,883.3776,682.51693)" clip-path="url(#clipPath8)"></path>
    <path id="path9" d="m 0,0 h -117.944 l 116.892,156.265 0.891,1.19 v 1.486 18.528 4.469 h -4.469 -153.891 -4.469 v -4.469 -23.932 -4.469 h 4.469 108.157 L -167.247,-6.937 -168.14,-8.128 v -1.488 -18.786 -4.47 h 4.47 H 0 4.469 v 4.47 V -4.47 0 Z" style="fill:#0071c1;fill-opacity:1;fill-rule:nonzero;stroke:none" transform="matrix(1.3333333,0,0,-1.3333333,1219.1432,750.45307)" clip-path="url(#clipPath10)"></path>
    <path id="path11" d="M 0,0 C -0.932,0.227 -1.664,-0.165 -2.019,-1.064 -2.222,-1.609 -2.474,-2.28 -2.777,-3.075 -3.068,-3.839 -3.386,-4.511 -3.73,-5.087 -4.122,-5.791 -4.567,-6.47 -5.053,-7.103 c -0.48,-0.627 -1.018,-1.211 -1.6,-1.735 -0.614,-0.553 -1.36,-1.04 -2.219,-1.448 -0.87,-0.414 -1.777,-0.735 -2.673,-0.946 -0.936,-0.178 -2.026,-0.313 -3.24,-0.402 -1.212,-0.09 -2.59,-0.136 -4.096,-0.136 h -7.717 V 9.458 h 6.426 c 2.657,0 4.486,-0.525 5.435,-1.562 0.974,-1.065 1.447,-2.227 1.447,-3.552 V 3.046 c 0,-0.539 0.247,-1.012 0.713,-1.366 0.85,-0.647 1.87,-0.651 2.724,0 0.467,0.354 0.714,0.827 0.714,1.366 v 16.533 c 0,0.562 -0.262,1.02 -0.757,1.326 -0.837,0.521 -1.806,0.518 -2.637,10e-4 -0.495,-0.307 -0.757,-0.765 -0.757,-1.327 v -1.024 c 0,-1.368 -0.47,-2.528 -1.439,-3.545 -0.949,-0.996 -2.78,-1.501 -5.443,-1.501 h -6.426 v 19.109 h 8.4 c 1.283,0 2.535,-0.079 3.723,-0.234 1.172,-0.155 2.08,-0.342 2.743,-0.569 0.655,-0.169 1.415,-0.495 2.255,-0.969 0.834,-0.474 1.492,-0.967 1.989,-1.501 0.53,-0.478 1.043,-1.038 1.525,-1.666 0.49,-0.642 0.909,-1.275 1.254,-1.895 0.348,-0.584 0.685,-1.188 1.009,-1.814 0.326,-0.635 0.591,-1.156 0.832,-1.631 0.52,-0.762 1.126,-0.921 1.543,-0.921 0.183,0 0.373,0.03 0.563,0.089 0.835,0.26 1.257,0.901 1.181,1.849 l -2.125,13.313 h -38.051 c -0.596,0 -1.091,-0.175 -1.472,-0.519 -0.395,-0.353 -0.603,-0.815 -0.603,-1.336 0,-0.465 0.192,-0.904 0.567,-1.301 0.38,-0.407 0.901,-0.621 1.508,-0.621 h 1.139 c 1.002,0 1.736,-0.232 2.182,-0.688 0.449,-0.459 0.677,-1.166 0.677,-2.103 V -9.252 c 0,-0.937 -0.227,-1.645 -0.677,-2.103 -0.445,-0.457 -1.179,-0.688 -2.182,-0.688 h -1.139 c -0.606,0 -1.107,-0.191 -1.491,-0.569 -0.387,-0.381 -0.584,-0.836 -0.584,-1.354 0,-0.472 0.197,-0.905 0.584,-1.286 0.384,-0.377 0.886,-0.568 1.491,-0.568 H -0.712 L 1.334,-1.587 C 1.372,-1.216 1.315,-0.32 0,0" style="fill:#040000;fill-opacity:1;fill-rule:nonzero;stroke:none" transform="matrix(1.3333333,0,0,-1.3333333,156.92973,877.0052)" clip-path="url(#clipPath12)"></path>
    <path id="path13" d="m 0,0 h -0.76 c -0.855,0 -1.476,0.187 -1.846,0.557 -0.37,0.366 -0.557,0.98 -0.557,1.824 v 19.745 c 0,1.165 -0.092,2.246 -0.275,3.213 -0.189,0.983 -0.475,1.85 -0.839,2.554 -0.381,0.831 -0.892,1.564 -1.521,2.18 -0.621,0.608 -1.369,1.135 -2.207,1.558 -0.701,0.388 -1.528,0.694 -2.459,0.91 -2,0.462 -3.754,0.395 -5.918,0.005 -1.176,-0.212 -2.152,-0.489 -2.9,-0.826 -0.726,-0.325 -1.466,-0.73 -2.199,-1.2 -0.732,-0.471 -1.369,-0.95 -1.894,-1.421 -0.519,-0.468 -0.993,-0.943 -1.41,-1.411 -0.004,-0.004 -0.008,-0.009 -0.012,-0.014 v 2.924 c 0,1.281 -0.852,1.574 -1.219,1.64 -0.556,0.101 -1.293,0.105 -2.291,0.005 L -37.2,31.149 c -1.788,-0.254 -1.856,-1.329 -1.802,-1.78 0.052,-0.434 0.339,-1.446 1.881,-1.446 h 1.291 c 0.84,0 1.415,-0.168 1.708,-0.497 0.31,-0.349 0.467,-0.937 0.467,-1.747 V 2.381 c 0,-0.843 -0.187,-1.456 -0.555,-1.824 C -34.583,0.187 -35.205,0 -36.059,0 h -0.758 c -0.556,0 -1.019,-0.181 -1.377,-0.536 -0.363,-0.357 -0.547,-0.754 -0.547,-1.182 0,-0.428 0.197,-0.837 0.585,-1.219 0.385,-0.376 0.886,-0.567 1.491,-0.567 h 14.65 c 0.567,0 1.042,0.21 1.378,0.609 0.311,0.375 0.47,0.771 0.47,1.177 0,0.416 -0.164,0.806 -0.487,1.161 C -20.987,-0.192 -21.458,0 -22.015,0 h -0.38 c -0.855,0 -1.476,0.187 -1.846,0.557 -0.369,0.366 -0.556,0.98 -0.556,1.824 v 17.353 c 0,0.801 0.278,1.657 0.827,2.543 0.573,0.924 1.275,1.742 2.101,2.441 0.698,0.629 1.541,1.12 2.506,1.46 0.973,0.342 1.92,0.515 2.814,0.515 0.55,0 1.147,-0.095 1.776,-0.284 0.588,-0.177 1.058,-0.439 1.419,-0.804 0.436,-0.392 0.77,-0.883 0.991,-1.459 0.228,-0.593 0.343,-1.25 0.343,-1.952 V 2.381 c 0,-0.843 -0.188,-1.456 -0.557,-1.824 C -12.948,0.187 -13.57,0 -14.424,0 h -0.379 c -0.566,0 -1.024,-0.187 -1.361,-0.558 -0.323,-0.355 -0.487,-0.745 -0.487,-1.16 0,-0.405 0.159,-0.802 0.471,-1.178 0.333,-0.398 0.809,-0.608 1.377,-0.608 H 0 c 0.567,0 1.043,0.21 1.376,0.609 0.312,0.375 0.471,0.772 0.471,1.177 0,0.415 -0.164,0.805 -0.487,1.16 C 1.028,-0.192 0.558,0 0,0" style="fill:#040000;fill-opacity:1;fill-rule:nonzero;stroke:none" transform="matrix(1.3333333,0,0,-1.3333333,215.05467,893.42707)" clip-path="url(#clipPath14)"></path>
    <path id="path15" d="m 0,0 h -12.374 c -0.557,0 -1.027,-0.192 -1.361,-0.558 -0.323,-0.355 -0.486,-0.722 -0.486,-1.091 0,-0.407 0.158,-0.802 0.471,-1.176 0.332,-0.4 0.808,-0.611 1.376,-0.611 h 2.05 c 0.757,0 1.416,-0.159 1.961,-0.472 0.345,-0.199 0.33,-0.745 -0.048,-1.631 l -7.17,-17.635 -7.736,17.628 c -0.256,0.651 -0.315,1.205 -0.178,1.648 0.12,0.381 0.788,0.462 1.329,0.462 h 1.519 c 0.567,0 1.043,0.211 1.376,0.61 0.312,0.375 0.471,0.77 0.471,1.177 0,0.369 -0.164,0.736 -0.488,1.093 C -19.621,-0.192 -20.091,0 -20.647,0 h -15.942 c -0.565,0 -1.023,-0.187 -1.362,-0.558 -0.322,-0.355 -0.486,-0.722 -0.486,-1.091 0,-0.407 0.159,-0.802 0.471,-1.176 0.332,-0.4 0.809,-0.611 1.377,-0.611 h 0.759 c 1.012,0 1.778,-0.237 2.276,-0.704 0.541,-0.507 0.98,-1.185 1.315,-2.041 l 13.127,-29.365 c 0.216,-0.517 0.63,-0.803 1.166,-0.803 0.087,0 0.178,0.008 0.275,0.025 0.596,0.1 1.031,0.44 1.258,0.988 l 11.614,28.554 c 0.425,1.02 0.959,1.856 1.588,2.484 0.571,0.572 1.473,0.862 2.68,0.862 H 0 c 0.567,0 1.043,0.211 1.377,0.61 0.312,0.374 0.47,0.769 0.47,1.177 0,0.369 -0.163,0.736 -0.488,1.094 C 1.026,-0.191 0.556,0 0,0" style="fill:#040000;fill-opacity:1;fill-rule:nonzero;stroke:none" transform="matrix(1.3333333,0,0,-1.3333333,269.7096,851.06907)" clip-path="url(#clipPath16)"></path>
    <path id="path17" d="M 0,0 H -1.291 C -2.165,0 -2.809,0.208 -3.263,0.636 -3.706,1.052 -3.921,1.645 -3.921,2.45 v 28.967 c 0,0.633 -0.376,1.309 -1.431,1.309 -0.608,0 -1.213,-0.048 -1.78,-0.141 l -9.95,-1.299 c -0.699,-0.099 -1.198,-0.349 -1.485,-0.744 -0.24,-0.33 -0.32,-0.734 -0.239,-1.2 0.1,-0.581 0.498,-1.556 2.03,-1.556 h 1.366 c 0.869,0 1.539,-0.196 1.99,-0.583 0.432,-0.37 0.641,-0.959 0.641,-1.798 V 2.45 c 0,-0.804 -0.215,-1.398 -0.659,-1.815 C -13.893,0.208 -14.538,0 -15.41,0 h -1.29 c -0.566,0 -1.023,-0.187 -1.362,-0.558 -0.323,-0.355 -0.486,-0.746 -0.486,-1.16 0,-0.424 0.17,-0.808 0.506,-1.146 0.335,-0.334 0.787,-0.503 1.342,-0.503 H 0 c 0.554,0 1.005,0.169 1.344,0.505 0.334,0.335 0.503,0.719 0.503,1.144 0,0.415 -0.163,0.805 -0.488,1.163 C 1.026,-0.191 0.556,0 0,0" style="fill:#040000;fill-opacity:1;fill-rule:nonzero;stroke:none" transform="matrix(1.3333333,0,0,-1.3333333,299.97133,893.60933)" clip-path="url(#clipPath18)"></path>
    <path id="path19" d="m 0,0 c 1.71,0 3.168,0.569 4.334,1.692 1.171,1.13 1.765,2.449 1.765,3.92 0,1.523 -0.597,2.844 -1.774,3.928 -1.163,1.073 -2.618,1.616 -4.325,1.616 -1.707,0 -3.162,-0.543 -4.325,-1.616 -1.176,-1.084 -1.773,-2.406 -1.773,-3.928 0,-1.47 0.594,-2.79 1.764,-3.92 C -3.168,0.569 -1.71,0 0,0" style="fill:#040000;fill-opacity:1;fill-rule:nonzero;stroke:none" transform="matrix(1.3333333,0,0,-1.3333333,288.12893,843.26173)" clip-path="url(#clipPath20)"></path>
    <path id="path21" d="M 0,0 C -0.402,0.414 -1.025,0.819 -1.904,1.241 -3.431,1.969 -5.341,2.04 -7.353,1.589 -8.193,1.399 -8.995,1.135 -9.75,0.796 c -0.688,-0.333 -1.411,-0.79 -2.147,-1.358 -0.73,-0.563 -1.342,-1.115 -1.861,-1.692 -0.337,-0.476 -0.71,-0.958 -1.109,-1.43 -0.002,-0.003 -0.004,-0.004 -0.005,-0.006 v 3.643 c 0,0.719 -0.396,1.217 -1.087,1.364 -0.497,0.106 -1.089,0.104 -1.661,0.008 L -28.007,0.098 c -0.735,-0.071 -1.237,-0.29 -1.535,-0.673 -0.161,-0.206 -0.335,-0.564 -0.253,-1.094 0.083,-0.547 0.443,-1.463 1.917,-1.463 h 1.518 c 0.868,0 1.51,-0.217 1.963,-0.66 0.45,-0.442 0.668,-1.027 0.668,-1.789 v -22.888 c 0,-0.849 -0.215,-1.465 -0.659,-1.883 -0.454,-0.426 -1.099,-0.634 -1.972,-0.634 h -0.911 c -0.558,0 -1.041,-0.203 -1.394,-0.587 -0.351,-0.377 -0.529,-0.758 -0.529,-1.131 0,-0.418 0.178,-0.821 0.527,-1.198 0.356,-0.385 0.839,-0.588 1.396,-0.588 h 15.941 c 0.732,0 1.142,0.344 1.36,0.636 0.274,0.372 0.412,0.758 0.412,1.15 0,0.347 -0.139,0.711 -0.413,1.083 -0.216,0.29 -0.626,0.635 -1.359,0.635 h -0.911 c -0.873,0 -1.518,0.208 -1.972,0.635 -0.444,0.416 -0.659,1.033 -0.659,1.882 v 11.751 c 0,0.934 0.038,1.788 0.111,2.542 0.075,0.757 0.187,1.495 0.335,2.205 0.241,1.263 0.595,2.377 1.053,3.31 0.458,0.932 0.931,1.685 1.436,2.28 0.32,0.454 0.639,0.804 0.948,1.042 0.328,0.253 0.609,0.443 0.884,0.595 0.141,0.097 0.281,0.16 0.416,0.19 0.163,0.037 0.326,0.056 0.422,0.075 0,0 0.024,-0.02 0.058,-0.086 0.101,-0.204 0.173,-0.437 0.21,-0.666 0.057,-0.514 0.214,-1.045 0.469,-1.581 0.26,-0.544 0.623,-1.029 1.078,-1.437 0.397,-0.359 0.906,-0.678 1.511,-0.948 1.092,-0.493 2.587,-0.634 4.144,-0.048 0.681,0.255 1.284,0.642 1.792,1.151 0.513,0.513 0.89,1.114 1.121,1.786 0.221,0.652 0.333,1.378 0.333,2.162 0,0.68 -0.109,1.41 -0.325,2.169 C 0.895,-1.182 0.515,-0.515 0,0" style="fill:#040000;fill-opacity:1;fill-rule:nonzero;stroke:none" transform="matrix(1.3333333,0,0,-1.3333333,346.95893,852.112)" clip-path="url(#clipPath22)"></path>
    <path id="path23" d="m 0,0 c 0,-0.936 -0.038,-2.133 -0.112,-3.557 -0.075,-1.401 -0.238,-2.766 -0.484,-4.052 -0.194,-0.959 -0.475,-1.864 -0.837,-2.688 -0.356,-0.813 -0.802,-1.552 -1.337,-2.209 -0.502,-0.656 -1.203,-1.211 -2.083,-1.649 -1.556,-0.777 -3.469,-0.891 -5.166,-0.22 -0.751,0.295 -1.391,0.657 -1.868,1.046 -0.759,0.725 -1.373,1.548 -1.823,2.443 -0.457,0.91 -0.812,1.924 -1.054,3.01 -0.295,1.374 -0.483,2.792 -0.557,4.217 -0.075,1.428 -0.113,2.659 -0.113,3.659 0,1.041 0.051,2.362 0.15,3.928 0.099,1.558 0.325,3.114 0.67,4.62 0.289,1.215 0.715,2.301 1.265,3.226 0.534,0.9 1.228,1.631 2.08,2.186 0.403,0.282 0.946,0.519 1.615,0.705 0.68,0.19 1.332,0.287 1.937,0.287 0.695,0 1.379,-0.106 2.031,-0.314 0.65,-0.21 1.211,-0.483 1.66,-0.806 0.794,-0.589 1.458,-1.348 1.974,-2.253 0.528,-0.932 0.943,-2.02 1.238,-3.256 C -0.422,6.908 -0.186,5.421 -0.112,3.902 -0.038,2.34 0,1.027 0,0 m 7.283,9.536 c -0.728,1.496 -1.65,2.882 -2.74,4.121 -1.101,1.25 -2.431,2.292 -3.952,3.096 -1.153,0.611 -2.464,1.089 -3.895,1.417 -2.962,0.679 -6.201,0.652 -9.067,-0.071 -1.483,-0.376 -2.843,-0.899 -4.05,-1.561 -1.312,-0.756 -2.469,-1.689 -3.439,-2.775 -0.961,-1.075 -1.789,-2.236 -2.467,-3.455 -0.78,-1.453 -1.372,-3.087 -1.761,-4.86 -0.387,-1.76 -0.583,-3.594 -0.583,-5.448 0,-1.901 0.209,-3.792 0.621,-5.621 0.414,-1.843 1.047,-3.536 1.888,-5.048 0.724,-1.212 1.564,-2.336 2.498,-3.339 0.949,-1.02 2.072,-1.875 3.345,-2.543 1.189,-0.605 2.527,-1.113 3.976,-1.51 1.46,-0.398 3.016,-0.6 4.626,-0.6 1.655,0 3.243,0.177 4.721,0.527 1.494,0.355 2.839,0.894 3.988,1.599 1.361,0.802 2.569,1.793 3.589,2.946 1.012,1.147 1.869,2.392 2.544,3.7 0.729,1.408 1.27,3.009 1.608,4.762 C 9.067,-3.391 9.237,-1.666 9.237,0 9.237,1.619 9.081,3.286 8.772,4.953 8.46,6.633 7.959,8.176 7.283,9.536" style="fill:#040000;fill-opacity:1;fill-rule:nonzero;stroke:none" transform="matrix(1.3333333,0,0,-1.3333333,386.67507,874.49347)" clip-path="url(#clipPath24)"></path>
    <path id="path25" d="m 0,0 h -0.759 c -0.856,0 -1.476,0.187 -1.847,0.557 -0.37,0.366 -0.557,0.98 -0.557,1.824 v 19.745 c 0,1.165 -0.092,2.246 -0.275,3.213 -0.187,0.982 -0.473,1.849 -0.838,2.554 -0.381,0.831 -0.892,1.564 -1.521,2.18 -0.622,0.608 -1.371,1.135 -2.208,1.558 -0.701,0.388 -1.528,0.694 -2.459,0.91 -2.001,0.462 -3.755,0.395 -5.918,0.005 -1.176,-0.212 -2.152,-0.489 -2.9,-0.826 -0.726,-0.326 -1.466,-0.73 -2.198,-1.2 -0.733,-0.471 -1.37,-0.95 -1.894,-1.421 -0.515,-0.464 -0.989,-0.938 -1.409,-1.411 -0.005,-0.004 -0.009,-0.01 -0.014,-0.015 v 2.925 c 0,1.281 -0.851,1.574 -1.218,1.64 -0.559,0.101 -1.295,0.105 -2.292,0.005 l -8.892,-1.094 c -1.787,-0.253 -1.857,-1.329 -1.803,-1.78 0.052,-0.434 0.339,-1.446 1.882,-1.446 h 1.29 c 0.84,0 1.415,-0.168 1.709,-0.497 0.31,-0.349 0.467,-0.937 0.467,-1.747 V 2.381 c 0,-0.843 -0.187,-1.456 -0.557,-1.824 C -34.582,0.187 -35.204,0 -36.058,0 h -0.758 c -0.555,0 -1.019,-0.181 -1.378,-0.536 -0.363,-0.357 -0.547,-0.754 -0.547,-1.182 0,-0.427 0.197,-0.837 0.585,-1.218 0.384,-0.377 0.886,-0.568 1.491,-0.568 h 14.651 c 0.568,0 1.043,0.21 1.377,0.609 0.312,0.375 0.47,0.772 0.47,1.177 0,0.415 -0.164,0.805 -0.486,1.16 C -20.986,-0.192 -21.456,0 -22.014,0 h -0.38 c -0.855,0 -1.476,0.187 -1.846,0.557 -0.37,0.367 -0.557,0.981 -0.557,1.824 v 17.353 c 0,0.801 0.278,1.657 0.827,2.542 0.574,0.925 1.276,1.743 2.1,2.442 0.7,0.63 1.544,1.121 2.508,1.46 0.972,0.342 1.919,0.515 2.813,0.515 0.551,0 1.148,-0.095 1.776,-0.284 0.588,-0.177 1.058,-0.439 1.419,-0.804 0.437,-0.393 0.771,-0.884 0.992,-1.458 0.227,-0.595 0.342,-1.252 0.342,-1.953 V 2.381 c 0,-0.843 -0.187,-1.457 -0.556,-1.824 C -12.947,0.187 -13.569,0 -14.423,0 h -0.38 c -0.565,0 -1.022,-0.187 -1.361,-0.558 -0.322,-0.354 -0.486,-0.745 -0.486,-1.16 0,-0.406 0.158,-0.802 0.471,-1.178 0.334,-0.398 0.81,-0.608 1.376,-0.608 H 0 c 0.566,0 1.042,0.21 1.377,0.609 0.312,0.375 0.47,0.771 0.47,1.177 0,0.416 -0.163,0.806 -0.487,1.161 C 1.027,-0.192 0.557,0 0,0" style="fill:#040000;fill-opacity:1;fill-rule:nonzero;stroke:none" transform="matrix(1.3333333,0,0,-1.3333333,455.94013,893.42707)" clip-path="url(#clipPath26)"></path>
    <path id="path27" d="m 0,0 h -0.759 c -0.855,0 -1.476,0.187 -1.846,0.557 -0.37,0.366 -0.557,0.98 -0.557,1.824 v 21.726 c 0,1.132 -0.133,2.225 -0.398,3.248 -0.28,1.083 -0.949,2.106 -1.974,3.029 -0.757,0.728 -1.724,1.331 -2.876,1.79 -1.15,0.457 -2.509,0.688 -4.039,0.688 -0.845,0 -1.692,-0.096 -2.517,-0.287 -0.808,-0.188 -1.587,-0.426 -2.326,-0.712 -0.684,-0.283 -1.351,-0.632 -1.985,-1.035 -0.619,-0.395 -1.25,-0.856 -1.874,-1.371 -0.582,-0.476 -1.133,-1.03 -1.637,-1.65 -0.237,-0.292 -0.464,-0.578 -0.683,-0.859 -0.157,0.447 -0.339,0.89 -0.544,1.324 -0.386,0.82 -0.972,1.562 -1.711,2.179 -0.705,0.684 -1.633,1.263 -2.758,1.721 -2.105,0.857 -4.116,0.811 -6.2,0.407 -0.975,-0.19 -1.795,-0.433 -2.454,-0.73 -0.567,-0.279 -1.182,-0.62 -1.828,-1.015 -0.658,-0.402 -1.209,-0.803 -1.66,-1.209 -0.472,-0.473 -0.922,-0.984 -1.336,-1.521 -0.048,-0.062 -0.095,-0.123 -0.142,-0.181 v 2.675 c 0,1.281 -0.852,1.574 -1.218,1.64 -0.557,0.101 -1.294,0.105 -2.292,0.005 l -8.892,-1.094 c -1.789,-0.254 -1.857,-1.329 -1.803,-1.779 0.051,-0.435 0.337,-1.447 1.881,-1.447 h 1.443 c 0.859,0 1.483,-0.179 1.856,-0.531 0.363,-0.345 0.547,-0.921 0.547,-1.713 V 2.381 c 0,-0.843 -0.187,-1.456 -0.557,-1.824 C -51.51,0.187 -52.131,0 -52.985,0 h -0.38 c -0.601,0 -1.067,-0.165 -1.383,-0.492 -0.3,-0.311 -0.444,-0.74 -0.426,-1.277 0.034,-1.103 0.749,-1.735 1.961,-1.735 h 13.892 c 0.566,0 1.042,0.21 1.377,0.609 0.312,0.375 0.47,0.771 0.47,1.177 0,0.416 -0.164,0.806 -0.487,1.161 C -38.294,-0.192 -38.765,0 -39.321,0 h -0.38 c -0.855,0 -1.476,0.187 -1.847,0.557 -0.369,0.366 -0.556,0.98 -0.556,1.824 v 17.353 c 0,0.785 0.2,1.627 0.595,2.505 0.398,0.884 0.957,1.676 1.69,2.383 0.602,0.667 1.306,1.185 2.092,1.539 0.786,0.353 1.628,0.532 2.504,0.532 0.679,0 1.281,-0.111 1.791,-0.331 0.512,-0.22 0.925,-0.489 1.192,-0.759 0.354,-0.439 0.613,-0.947 0.77,-1.507 0.162,-0.589 0.245,-1.229 0.245,-1.902 V 2.381 c 0,-0.843 -0.187,-1.457 -0.556,-1.824 C -32.152,0.187 -32.774,0 -33.628,0 h -0.38 c -0.565,0 -1.022,-0.187 -1.361,-0.558 -0.322,-0.354 -0.486,-0.744 -0.486,-1.16 0,-0.406 0.158,-0.802 0.471,-1.178 0.334,-0.398 0.81,-0.608 1.376,-0.608 h 14.044 c 0.568,0 1.043,0.21 1.376,0.608 0.313,0.375 0.471,0.771 0.471,1.178 0,0.416 -0.164,0.807 -0.487,1.16 C -18.936,-0.192 -19.406,0 -19.964,0 h -0.38 c -0.855,0 -1.476,0.187 -1.846,0.557 -0.37,0.367 -0.558,0.981 -0.558,1.824 v 17.217 c 0,0.736 0.214,1.59 0.636,2.541 0.423,0.953 0.994,1.778 1.741,2.5 0.553,0.663 1.204,1.176 1.937,1.527 1.467,0.702 3.151,0.654 4.313,0.132 0.586,-0.265 1.087,-0.622 1.466,-1.037 0.355,-0.441 0.615,-0.938 0.771,-1.478 0.162,-0.564 0.244,-1.213 0.244,-1.93 V 2.381 c 0,-0.843 -0.187,-1.457 -0.556,-1.824 C -12.567,0.187 -13.189,0 -14.043,0 h -0.38 c -0.557,0 -1.028,-0.192 -1.359,-0.557 -0.324,-0.354 -0.488,-0.745 -0.488,-1.161 0,-0.407 0.159,-0.803 0.471,-1.178 0.333,-0.398 0.809,-0.608 1.376,-0.608 H 0 c 0.568,0 1.044,0.21 1.377,0.609 0.312,0.375 0.471,0.772 0.471,1.177 0,0.415 -0.164,0.805 -0.487,1.16 C 1.029,-0.192 0.558,0 0,0" style="fill:#040000;fill-opacity:1;fill-rule:nonzero;stroke:none" transform="matrix(1.3333333,0,0,-1.3333333,536.70827,893.42707)" clip-path="url(#clipPath28)"></path>
    <path id="path29" d="M 0,0 C 0.016,0.728 0.064,1.483 0.142,2.257 0.24,3.229 0.39,4.172 0.585,5.053 0.827,6.057 1.16,7.022 1.574,7.921 c 0.403,0.874 0.917,1.639 1.499,2.244 0.506,0.455 1.076,0.812 1.694,1.059 1.227,0.489 3.009,0.479 4.143,0.034 0.567,-0.226 1.085,-0.547 1.541,-0.956 0.606,-0.546 1.128,-1.22 1.552,-2.002 0.43,-0.797 0.77,-1.685 1.013,-2.64 0.245,-0.97 0.432,-2.014 0.556,-3.102 0.1,-0.888 0.16,-1.746 0.179,-2.558 z m 22.23,-10.307 c -0.687,0.346 -1.387,0.169 -2.006,-0.604 -0.339,-0.523 -0.705,-1.006 -1.088,-1.437 -0.404,-0.455 -0.832,-0.93 -1.227,-1.374 -0.543,-0.444 -1.13,-0.882 -1.745,-1.302 -0.605,-0.414 -1.253,-0.778 -1.925,-1.08 -0.676,-0.304 -1.395,-0.544 -2.137,-0.716 -0.739,-0.172 -1.501,-0.26 -2.266,-0.26 -1.285,0 -2.437,0.215 -3.425,0.639 -0.999,0.427 -1.867,0.969 -2.593,1.623 -0.7,0.587 -1.294,1.335 -1.764,2.224 -0.492,0.931 -0.914,1.914 -1.249,2.906 -0.294,0.968 -0.504,2.037 -0.625,3.178 -0.103,0.955 -0.163,1.895 -0.181,2.8 h 22.768 v 1.445 c 0,1.752 -0.131,3.393 -0.388,4.878 -0.262,1.5 -0.685,2.881 -1.254,4.091 -0.577,1.318 -1.319,2.525 -2.208,3.585 -0.893,1.062 -1.93,1.982 -3.101,2.749 -1.09,0.654 -2.38,1.224 -3.836,1.692 -1.468,0.472 -3.057,0.71 -4.725,0.71 -1.672,0 -3.199,-0.227 -4.542,-0.677 C 1.392,14.318 0.123,13.765 -1.073,13.109 -2.275,12.405 -3.428,11.476 -4.498,10.349 -5.569,9.22 -6.457,7.956 -7.135,6.592 -7.812,5.233 -8.338,3.694 -8.7,2.021 -9.061,0.351 -9.244,-1.39 -9.244,-3.153 c 0,-1.626 0.197,-3.311 0.584,-5.009 0.388,-1.699 0.927,-3.246 1.613,-4.621 0.723,-1.303 1.638,-2.599 2.721,-3.852 1.1,-1.271 2.347,-2.321 3.738,-3.137 1.188,-0.605 2.512,-1.113 3.936,-1.51 1.436,-0.399 2.981,-0.601 4.59,-0.601 1.194,0 2.354,0.107 3.446,0.318 1.094,0.211 2.153,0.533 3.149,0.956 0.995,0.424 1.934,0.937 2.79,1.522 0.865,0.589 1.653,1.273 2.343,2.036 0.615,0.694 1.192,1.438 1.715,2.212 0.524,0.778 0.976,1.628 1.332,2.496 0.641,1.344 -0.207,1.899 -0.483,2.036" style="fill:#040000;fill-opacity:1;fill-rule:nonzero;stroke:none" transform="matrix(1.3333333,0,0,-1.3333333,556.38667,870.19787)" clip-path="url(#clipPath30)"></path>
    <path id="path31" d="m 0,0 h -0.76 c -0.855,0 -1.476,0.187 -1.846,0.557 -0.37,0.366 -0.557,0.98 -0.557,1.824 v 19.745 c 0,1.165 -0.092,2.246 -0.275,3.213 -0.187,0.982 -0.473,1.849 -0.838,2.554 -0.383,0.833 -0.894,1.566 -1.521,2.18 -0.622,0.608 -1.371,1.135 -2.208,1.558 -0.701,0.388 -1.528,0.694 -2.459,0.91 -2,0.462 -3.755,0.395 -5.918,0.005 -1.176,-0.212 -2.152,-0.489 -2.9,-0.826 -0.728,-0.327 -1.468,-0.731 -2.199,-1.2 -0.733,-0.472 -1.37,-0.951 -1.893,-1.421 -0.515,-0.464 -0.989,-0.938 -1.409,-1.411 -0.005,-0.004 -0.009,-0.01 -0.014,-0.015 v 2.925 c 0,1.281 -0.851,1.574 -1.218,1.64 -0.559,0.101 -1.295,0.105 -2.292,0.005 l -8.892,-1.094 c -1.787,-0.253 -1.857,-1.329 -1.803,-1.78 0.052,-0.434 0.339,-1.446 1.882,-1.446 h 1.29 c 0.84,0 1.415,-0.168 1.709,-0.497 0.309,-0.348 0.466,-0.936 0.466,-1.747 V 2.381 c 0,-0.843 -0.187,-1.457 -0.556,-1.824 C -34.582,0.187 -35.204,0 -36.058,0 h -0.758 c -0.555,0 -1.019,-0.181 -1.378,-0.536 -0.363,-0.357 -0.547,-0.754 -0.547,-1.182 0,-0.427 0.197,-0.837 0.585,-1.218 0.384,-0.377 0.886,-0.568 1.491,-0.568 h 14.65 c 0.568,0 1.044,0.21 1.378,0.609 0.312,0.375 0.47,0.772 0.47,1.177 0,0.415 -0.164,0.805 -0.486,1.16 C -20.986,-0.192 -21.457,0 -22.015,0 h -0.379 c -0.855,0 -1.477,0.187 -1.847,0.557 -0.369,0.366 -0.556,0.98 -0.556,1.824 v 17.353 c 0,0.801 0.278,1.657 0.827,2.542 0.575,0.927 1.277,1.745 2.101,2.442 0.698,0.629 1.541,1.12 2.507,1.46 0.972,0.342 1.919,0.515 2.813,0.515 0.551,0 1.148,-0.095 1.776,-0.284 0.588,-0.177 1.058,-0.439 1.419,-0.804 0.437,-0.393 0.771,-0.884 0.991,-1.459 0.228,-0.593 0.343,-1.25 0.343,-1.952 V 2.381 c 0,-0.843 -0.187,-1.457 -0.556,-1.824 C -12.947,0.187 -13.569,0 -14.423,0 h -0.38 c -0.566,0 -1.024,-0.187 -1.361,-0.558 -0.323,-0.355 -0.487,-0.745 -0.487,-1.16 0,-0.405 0.159,-0.802 0.471,-1.178 0.333,-0.398 0.809,-0.608 1.377,-0.608 H 0 c 0.567,0 1.043,0.21 1.375,0.608 0.313,0.375 0.472,0.771 0.472,1.178 0,0.416 -0.164,0.807 -0.487,1.16 C 1.028,-0.192 0.558,0 0,0" style="fill:#040000;fill-opacity:1;fill-rule:nonzero;stroke:none" transform="matrix(1.3333333,0,0,-1.3333333,644.70307,893.42707)" clip-path="url(#clipPath32)"></path>
    <path id="path33" d="m 0,0 c -0.101,0.017 -0.198,0.024 -0.294,0.024 -0.469,0 -1.136,-0.195 -1.648,-1.124 -0.196,-0.349 -0.413,-0.697 -0.655,-1.045 l -0.765,-1.102 c -0.276,-0.414 -0.539,-0.735 -0.782,-0.954 -0.271,-0.244 -0.604,-0.521 -0.998,-0.83 -0.359,-0.283 -0.756,-0.509 -1.18,-0.669 -0.654,-0.247 -1.399,-0.397 -2.244,-0.041 -0.323,0.135 -0.588,0.297 -0.792,0.482 -0.173,0.155 -0.328,0.445 -0.447,0.84 -0.135,0.444 -0.204,0.964 -0.204,1.546 v 23.629 h 7.338 c 0.706,0 1.13,0.304 1.359,0.556 0.324,0.353 0.488,0.767 0.488,1.23 0,0.407 -0.158,0.803 -0.471,1.178 -0.333,0.398 -0.809,0.608 -1.376,0.608 h -7.338 v 11.741 c 0,0.529 -0.214,0.985 -0.623,1.321 -0.757,0.617 -1.858,0.597 -2.52,0.072 -0.322,-0.258 -0.552,-0.63 -0.702,-1.204 -0.048,-0.525 -0.146,-1.109 -0.292,-1.738 -0.152,-0.666 -0.28,-1.251 -0.379,-1.746 -0.198,-0.886 -0.459,-1.783 -0.778,-2.664 -0.316,-0.875 -0.697,-1.694 -1.138,-2.446 -0.372,-0.666 -0.799,-1.198 -1.27,-1.582 -0.485,-0.395 -0.987,-0.7 -1.51,-0.914 -0.571,-0.257 -1.199,-0.464 -1.867,-0.614 -0.663,-0.15 -1.26,-0.226 -1.775,-0.226 h -0.684 c -0.576,0 -1.056,-0.227 -1.39,-0.66 -0.303,-0.395 -0.457,-0.796 -0.457,-1.194 0,-0.453 0.159,-0.87 0.471,-1.245 0.332,-0.399 0.808,-0.61 1.376,-0.61 h 4.681 V -3.146 c 0,-0.85 0.054,-1.625 0.158,-2.305 0.106,-0.691 0.267,-1.375 0.476,-2.031 l 0.044,-0.101 c 0.266,-0.482 0.578,-0.945 0.925,-1.376 0.348,-0.436 0.74,-0.849 1.223,-1.275 0.43,-0.291 0.909,-0.55 1.422,-0.769 0.502,-0.214 1.025,-0.395 1.511,-0.524 0.547,-0.197 1.09,-0.323 1.617,-0.372 0.502,-0.047 1.094,-0.071 1.76,-0.071 0.638,0 1.389,0.084 2.233,0.249 0.86,0.171 1.546,0.373 2.077,0.613 0.608,0.25 1.231,0.634 1.851,1.144 0.602,0.496 1.121,0.987 1.553,1.474 0.319,0.381 0.693,0.915 1.145,1.631 0.441,0.703 0.773,1.3 0.994,1.797 0.21,0.522 0.382,1.01 0.512,1.453 0.125,0.428 0.288,0.96 0.51,1.689 C 1.346,-0.391 0.412,-0.068 0,0" style="fill:#040000;fill-opacity:1;fill-rule:nonzero;stroke:none" transform="matrix(1.3333333,0,0,-1.3333333,684.09373,883.41533)" clip-path="url(#clipPath34)"></path>
    <path id="path35" d="m 0,0 h -39.291 l -3.22,-13.571 c -0.155,-0.828 0.231,-1.457 1.057,-1.725 0.215,-0.07 0.426,-0.106 0.627,-0.106 0.367,0 0.9,0.122 1.392,0.759 0.368,0.617 0.781,1.361 1.229,2.212 0.441,0.839 0.888,1.577 1.32,2.183 0.407,0.549 0.815,1.109 1.222,1.683 0.384,0.541 0.799,1.034 1.21,1.446 0.397,0.358 0.92,0.795 1.567,1.31 0.597,0.475 1.194,0.797 1.833,0.977 0.415,0.166 0.899,0.293 1.437,0.377 0.552,0.087 1.097,0.131 1.622,0.131 h 0.835 c 1.03,0 1.784,-0.18 2.239,-0.532 0.411,-0.321 0.62,-0.943 0.62,-1.849 v -39.216 c 0,-0.936 -0.227,-1.644 -0.677,-2.103 -0.445,-0.456 -1.179,-0.688 -2.182,-0.688 h -1.595 c -0.665,0 -1.186,-0.198 -1.547,-0.588 -0.35,-0.377 -0.527,-0.826 -0.527,-1.335 0,-0.464 0.177,-0.89 0.527,-1.267 0.362,-0.39 0.882,-0.587 1.547,-0.587 h 18.219 c 0.663,0 1.183,0.197 1.548,0.588 0.349,0.379 0.527,0.804 0.527,1.266 0,0.507 -0.178,0.955 -0.528,1.335 -0.363,0.391 -0.883,0.588 -1.547,0.588 h -1.594 c -0.959,0 -1.683,0.234 -2.154,0.696 -0.475,0.463 -0.705,1.148 -0.705,2.095 v 39.216 c 0,0.902 0.218,1.521 0.649,1.842 0.481,0.357 1.224,0.539 2.21,0.539 h 0.835 c 0.523,0 1.068,-0.044 1.621,-0.13 0.539,-0.086 1.023,-0.213 1.494,-0.398 0.59,-0.163 1.195,-0.466 1.794,-0.903 0.632,-0.46 1.146,-0.889 1.531,-1.276 0.479,-0.478 0.956,-1.05 1.417,-1.702 0.475,-0.677 0.889,-1.286 1.237,-1.823 0.399,-0.631 0.774,-1.284 1.115,-1.939 0.356,-0.688 0.713,-1.354 1.07,-1.996 0.406,-0.73 0.98,-0.882 1.391,-0.882 0.203,0 0.419,0.038 0.641,0.112 1.154,0.389 1.255,1.236 1.199,1.784 z" style="fill:#040000;fill-opacity:1;fill-rule:nonzero;stroke:none" transform="matrix(1.3333333,0,0,-1.3333333,776.05733,828.11333)" clip-path="url(#clipPath36)"></path>
    <path id="path37" d="m 0,0 c 0.016,0.728 0.063,1.483 0.142,2.256 0.099,0.98 0.25,1.924 0.443,2.796 0.244,1.009 0.577,1.974 0.989,2.869 0.403,0.874 0.916,1.639 1.499,2.244 0.505,0.455 1.075,0.812 1.694,1.059 1.228,0.49 3.009,0.48 4.142,0.034 C 9.477,11.032 9.995,10.711 10.45,10.302 11.059,9.755 11.581,9.081 12.003,8.3 12.433,7.503 12.773,6.615 13.016,5.66 13.261,4.69 13.447,3.646 13.571,2.558 13.672,1.666 13.732,0.809 13.752,0 Z m 22.231,-10.307 c -0.688,0.345 -1.388,0.168 -2.006,-0.604 -0.34,-0.523 -0.705,-1.006 -1.088,-1.437 -0.405,-0.455 -0.833,-0.93 -1.227,-1.374 -0.545,-0.445 -1.133,-0.883 -1.746,-1.302 -0.604,-0.414 -1.253,-0.778 -1.926,-1.08 -0.675,-0.304 -1.394,-0.544 -2.136,-0.716 -0.74,-0.172 -1.501,-0.26 -2.266,-0.26 -1.285,0 -2.437,0.215 -3.425,0.639 -0.999,0.427 -1.867,0.969 -2.594,1.623 -0.7,0.587 -1.293,1.335 -1.762,2.224 -0.493,0.93 -0.915,1.913 -1.25,2.906 -0.293,0.968 -0.504,2.037 -0.625,3.178 -0.103,0.955 -0.163,1.895 -0.181,2.8 h 22.768 v 1.445 c 0,1.752 -0.13,3.393 -0.388,4.878 -0.262,1.5 -0.686,2.881 -1.253,4.09 -0.575,1.317 -1.318,2.523 -2.209,3.586 -0.895,1.063 -1.932,1.984 -3.101,2.749 -1.091,0.655 -2.381,1.225 -3.837,1.692 -1.466,0.472 -3.056,0.71 -4.724,0.71 -1.671,0 -3.199,-0.227 -4.542,-0.677 C 1.392,14.318 0.123,13.765 -1.072,13.109 -2.275,12.405 -3.428,11.476 -4.498,10.348 -5.57,9.217 -6.458,7.953 -7.136,6.592 -7.812,5.235 -8.337,3.697 -8.698,2.021 -9.06,0.351 -9.242,-1.39 -9.242,-3.153 c 0,-1.63 0.196,-3.316 0.583,-5.009 0.387,-1.697 0.925,-3.245 1.611,-4.621 0.724,-1.304 1.641,-2.6 2.723,-3.852 1.098,-1.27 2.346,-2.321 3.737,-3.137 1.191,-0.606 2.515,-1.114 3.937,-1.509 1.435,-0.4 2.979,-0.602 4.589,-0.602 1.195,0 2.354,0.107 3.446,0.318 1.095,0.211 2.154,0.533 3.15,0.957 0.995,0.424 1.934,0.936 2.789,1.521 0.865,0.589 1.653,1.273 2.342,2.036 0.62,0.698 1.197,1.443 1.716,2.212 0.526,0.782 0.978,1.632 1.332,2.496 0.641,1.344 -0.206,1.898 -0.482,2.036" style="fill:#040000;fill-opacity:1;fill-rule:nonzero;stroke:none" transform="matrix(1.3333333,0,0,-1.3333333,796.76827,870.19787)" clip-path="url(#clipPath38)"></path>
    <path id="path39" d="m 0,0 c -0.149,0.045 -0.298,0.067 -0.442,0.067 -0.37,0 -0.903,-0.148 -1.358,-0.903 -0.343,-0.706 -0.817,-1.524 -1.408,-2.434 -0.576,-0.884 -1.28,-1.682 -2.119,-2.394 -0.756,-0.723 -1.68,-1.305 -2.745,-1.731 -1.768,-0.708 -3.717,-0.876 -5.545,-0.293 -0.728,0.232 -1.43,0.585 -2.069,1.038 -0.67,0.516 -1.301,1.15 -1.875,1.883 -0.571,0.729 -1.082,1.649 -1.508,2.712 -0.394,1.106 -0.717,2.385 -0.962,3.804 -0.247,1.415 -0.372,2.945 -0.372,4.55 0,1.6 0.113,3.147 0.336,4.596 0.22,1.435 0.529,2.671 0.924,3.695 0.385,1.126 0.87,2.086 1.439,2.855 0.576,0.777 1.203,1.43 1.864,1.938 0.602,0.459 1.246,0.797 1.915,1.005 1.453,0.45 2.985,0.4 4.499,-0.036 0.758,-0.222 1.363,-0.573 1.784,-1.027 0.503,-0.582 0.653,-1.008 0.444,-1.266 -0.384,-0.476 -0.696,-0.822 -0.99,-1.098 -0.279,-0.352 -0.572,-0.828 -0.895,-1.458 -0.342,-0.669 -0.516,-1.375 -0.516,-2.099 0,-1.045 0.403,-2.041 1.198,-2.96 0.815,-0.944 2.106,-1.423 3.838,-1.423 1.307,0 2.483,0.489 3.496,1.452 1.021,0.969 1.54,2.255 1.54,3.82 0,1.256 -0.272,2.494 -0.81,3.681 -0.534,1.177 -1.346,2.262 -2.411,3.223 -1.11,0.999 -2.509,1.827 -4.158,2.462 -1.651,0.638 -3.467,0.96 -5.4,0.96 -1.302,0 -2.584,-0.142 -3.807,-0.424 -1.218,-0.28 -2.392,-0.683 -3.497,-1.203 -1.247,-0.609 -2.417,-1.343 -3.48,-2.182 -1.071,-0.847 -2.035,-1.822 -2.872,-2.907 -1.145,-1.547 -2.055,-3.359 -2.702,-5.387 -0.648,-2.026 -0.975,-4.209 -0.975,-6.491 0,-1.849 0.157,-3.597 0.465,-5.195 0.31,-1.602 0.729,-3.073 1.254,-4.393 0.676,-1.499 1.548,-2.867 2.593,-4.066 1.044,-1.198 2.237,-2.212 3.544,-3.012 1.155,-0.71 2.462,-1.238 3.886,-1.57 1.403,-0.327 2.902,-0.493 4.453,-0.493 1.351,0 2.645,0.142 3.845,0.425 1.195,0.28 2.254,0.637 3.148,1.062 1.113,0.526 2.123,1.228 3,2.088 0.864,0.85 1.596,1.76 2.139,2.655 0.585,0.766 1.045,1.57 1.367,2.39 0.307,0.785 0.57,1.588 0.776,2.377 C 1.066,-0.865 0.755,-0.227 0,0" style="fill:#040000;fill-opacity:1;fill-rule:nonzero;stroke:none" transform="matrix(1.3333333,0,0,-1.3333333,873.55733,882.43613)" clip-path="url(#clipPath40)"></path>
    <path id="path41" d="m 0,0 h -0.911 c -0.874,0 -1.518,0.208 -1.972,0.636 -0.443,0.416 -0.659,1.009 -0.659,1.813 v 18.652 c 0,1.162 -0.093,2.253 -0.275,3.245 -0.186,0.995 -0.467,1.911 -0.846,2.741 -0.433,0.876 -1.022,1.665 -1.751,2.347 -0.724,0.674 -1.55,1.235 -2.44,1.659 -0.75,0.385 -1.638,0.688 -2.644,0.903 -1.848,0.394 -3.772,0.46 -5.926,0 -1.007,-0.215 -1.896,-0.518 -2.632,-0.897 -0.673,-0.327 -1.378,-0.715 -2.096,-1.154 -0.749,-0.457 -1.377,-0.962 -1.807,-1.443 -0.523,-0.423 -1.002,-0.866 -1.423,-1.316 -0.058,-0.063 -0.117,-0.126 -0.175,-0.189 v 20.681 c 0,0.599 -0.375,1.239 -1.429,1.239 -0.608,0 -1.212,-0.048 -1.777,-0.141 l -9.979,-1.235 c -1.794,-0.34 -1.784,-1.475 -1.696,-1.945 0.101,-0.553 0.499,-1.482 2.027,-1.482 h 1.367 c 0.864,0 1.531,-0.205 1.98,-0.608 0.438,-0.395 0.651,-1.02 0.651,-1.909 V 2.382 c 0,-0.805 -0.216,-1.399 -0.66,-1.816 -0.454,-0.426 -1.099,-0.634 -1.971,-0.634 h -0.911 c -0.566,0 -1.024,-0.187 -1.362,-0.558 -0.323,-0.355 -0.486,-0.723 -0.486,-1.092 0,-0.463 0.174,-0.882 0.506,-1.215 0.335,-0.334 0.786,-0.503 1.342,-0.503 h 15.941 c 0.555,0 1.006,0.169 1.343,0.505 0.33,0.331 0.504,0.75 0.504,1.213 0,0.369 -0.163,0.737 -0.487,1.094 -0.332,0.363 -0.803,0.556 -1.36,0.556 h -0.911 c -0.873,0 -1.518,0.208 -1.972,0.635 -0.444,0.416 -0.66,1.009 -0.66,1.815 v 15.235 c 0,0.448 0.071,0.941 0.209,1.461 0.144,0.534 0.334,1.038 0.573,1.51 0.281,0.591 0.687,1.191 1.208,1.786 0.525,0.604 1.084,1.129 1.611,1.528 0.573,0.343 1.252,0.649 2.019,0.908 1.54,0.518 3.33,0.47 4.541,0.067 0.607,-0.203 1.116,-0.487 1.494,-0.826 0.487,-0.478 0.86,-1.135 1.109,-1.95 0.262,-0.86 0.395,-1.863 0.395,-2.981 V 2.449 c 0,-0.803 -0.216,-1.396 -0.661,-1.814 C -13.513,0.208 -14.157,0 -15.03,0 h -0.911 c -0.557,0 -1.028,-0.192 -1.361,-0.557 -0.323,-0.354 -0.486,-0.745 -0.486,-1.161 0,-0.47 0.17,-0.879 0.506,-1.215 0.335,-0.334 0.786,-0.503 1.341,-0.503 h 15.79 c 1.161,0 1.847,0.62 1.884,1.701 0.017,0.533 -0.124,0.958 -0.42,1.262 C 1.01,-0.158 0.567,0 0,0" style="fill:#040000;fill-opacity:1;fill-rule:nonzero;stroke:none" transform="matrix(1.3333333,0,0,-1.3333333,932.6536,893.51827)" clip-path="url(#clipPath42)"></path>
    <path id="path43" d="m 0,0 h -0.76 c -0.855,0 -1.476,0.187 -1.846,0.557 -0.37,0.366 -0.557,0.98 -0.557,1.824 v 19.745 c 0,1.165 -0.093,2.246 -0.275,3.213 -0.187,0.982 -0.473,1.849 -0.838,2.554 -0.383,0.833 -0.895,1.566 -1.522,2.18 -0.621,0.608 -1.37,1.135 -2.207,1.558 -0.701,0.388 -1.528,0.694 -2.459,0.91 -2,0.461 -3.754,0.394 -5.918,0.005 -1.177,-0.212 -2.152,-0.489 -2.9,-0.826 -0.729,-0.327 -1.468,-0.731 -2.199,-1.2 -0.733,-0.472 -1.371,-0.951 -1.893,-1.421 -0.515,-0.464 -0.989,-0.938 -1.409,-1.411 -0.005,-0.004 -0.01,-0.01 -0.015,-0.015 v 2.925 c 0,1.281 -0.85,1.574 -1.217,1.64 -0.558,0.102 -1.295,0.105 -2.293,0.005 l -8.891,-1.094 c -1.789,-0.254 -1.857,-1.329 -1.803,-1.78 0.052,-0.434 0.339,-1.446 1.881,-1.446 h 1.291 c 0.84,0 1.415,-0.168 1.709,-0.497 0.309,-0.348 0.467,-0.936 0.467,-1.747 V 2.381 c 0,-0.843 -0.188,-1.457 -0.557,-1.824 C -34.582,0.187 -35.203,0 -36.058,0 h -0.759 c -0.554,0 -1.018,-0.181 -1.377,-0.536 -0.363,-0.357 -0.546,-0.754 -0.546,-1.182 0,-0.428 0.196,-0.838 0.584,-1.218 0.385,-0.377 0.885,-0.568 1.491,-0.568 h 14.65 c 0.568,0 1.044,0.21 1.377,0.609 0.313,0.375 0.471,0.772 0.471,1.177 0,0.415 -0.163,0.805 -0.486,1.16 C -20.985,-0.192 -21.456,0 -22.015,0 h -0.379 c -0.855,0 -1.477,0.187 -1.847,0.557 -0.369,0.366 -0.557,0.98 -0.557,1.824 v 17.353 c 0,0.801 0.278,1.657 0.828,2.542 0.574,0.927 1.278,1.745 2.101,2.442 0.697,0.629 1.541,1.12 2.507,1.46 0.972,0.342 1.919,0.515 2.813,0.515 0.551,0 1.148,-0.095 1.776,-0.284 0.588,-0.177 1.058,-0.439 1.419,-0.804 0.438,-0.393 0.771,-0.884 0.991,-1.459 0.227,-0.593 0.343,-1.25 0.343,-1.952 V 2.381 c 0,-0.843 -0.187,-1.457 -0.556,-1.824 C -12.947,0.187 -13.568,0 -14.423,0 h -0.38 c -0.566,0 -1.024,-0.187 -1.361,-0.558 -0.323,-0.355 -0.486,-0.745 -0.486,-1.16 0,-0.405 0.158,-0.802 0.47,-1.178 0.333,-0.398 0.81,-0.608 1.377,-0.608 H 0 c 0.567,0 1.043,0.21 1.376,0.608 0.312,0.375 0.471,0.771 0.471,1.178 0,0.416 -0.164,0.807 -0.487,1.16 C 1.028,-0.192 0.558,0 0,0" style="fill:#040000;fill-opacity:1;fill-rule:nonzero;stroke:none" transform="matrix(1.3333333,0,0,-1.3333333,990.8516,893.42707)" clip-path="url(#clipPath44)"></path>
    <path id="path45" d="m 0,0 c 0,-0.941 -0.038,-2.139 -0.114,-3.557 -0.073,-1.399 -0.236,-2.764 -0.483,-4.052 -0.193,-0.96 -0.475,-1.865 -0.838,-2.688 -0.354,-0.812 -0.8,-1.551 -1.336,-2.208 -0.502,-0.657 -1.204,-1.213 -2.083,-1.65 -1.554,-0.776 -3.471,-0.891 -5.165,-0.22 -0.751,0.295 -1.39,0.656 -1.869,1.046 -0.758,0.725 -1.372,1.548 -1.822,2.443 -0.458,0.91 -0.812,1.924 -1.054,3.01 -0.296,1.374 -0.483,2.792 -0.557,4.217 -0.076,1.44 -0.115,2.672 -0.115,3.659 0,1.046 0.051,2.367 0.152,3.928 0.098,1.556 0.324,3.112 0.669,4.62 0.289,1.216 0.715,2.301 1.266,3.226 0.534,0.9 1.228,1.631 2.079,2.186 0.404,0.282 0.947,0.519 1.616,0.705 0.679,0.19 1.331,0.287 1.936,0.287 0.696,0 1.379,-0.106 2.031,-0.314 0.649,-0.209 1.21,-0.483 1.661,-0.806 0.794,-0.589 1.458,-1.348 1.973,-2.253 0.529,-0.932 0.944,-2.02 1.238,-3.256 C -0.423,6.907 -0.187,5.42 -0.114,3.901 -0.038,2.347 0,1.034 0,0 m 7.282,9.536 c -0.728,1.495 -1.649,2.882 -2.739,4.121 -1.103,1.25 -2.433,2.292 -3.953,3.096 -1.154,0.612 -2.465,1.089 -3.895,1.417 -2.962,0.678 -6.203,0.652 -9.066,-0.071 -1.485,-0.376 -2.845,-0.9 -4.051,-1.561 -1.31,-0.756 -2.468,-1.689 -3.439,-2.775 -0.961,-1.076 -1.789,-2.237 -2.466,-3.455 -0.78,-1.453 -1.373,-3.087 -1.762,-4.86 -0.387,-1.76 -0.582,-3.594 -0.582,-5.448 0,-1.905 0.209,-3.797 0.621,-5.621 0.413,-1.842 1.045,-3.535 1.886,-5.048 0.723,-1.21 1.564,-2.334 2.5,-3.339 0.948,-1.02 2.071,-1.875 3.344,-2.543 1.189,-0.605 2.527,-1.113 3.977,-1.51 1.459,-0.398 3.016,-0.6 4.625,-0.6 1.656,0 3.243,0.177 4.722,0.527 1.493,0.355 2.838,0.894 3.988,1.6 1.362,0.803 2.57,1.794 3.587,2.945 1.013,1.146 1.869,2.391 2.545,3.7 0.73,1.408 1.271,3.009 1.608,4.762 C 9.066,-3.394 9.235,-1.669 9.235,0 9.235,1.623 9.079,3.289 8.771,4.953 8.46,6.633 7.958,8.176 7.282,9.536" style="fill:#040000;fill-opacity:1;fill-rule:nonzero;stroke:none" transform="matrix(1.3333333,0,0,-1.3333333,1030.3919,874.49347)" clip-path="url(#clipPath46)"></path>
    <path id="path47" d="M 0,0 H -0.911 C -1.784,0 -2.43,0.208 -2.884,0.636 -3.327,1.052 -3.543,1.645 -3.543,2.45 v 45.364 c 0,0.6 -0.375,1.24 -1.43,1.24 -0.607,0 -1.212,-0.048 -1.776,-0.141 l -9.98,-1.235 c -1.794,-0.341 -1.785,-1.475 -1.697,-1.946 0.102,-0.553 0.501,-1.481 2.029,-1.481 h 1.366 c 0.865,0 1.532,-0.205 1.98,-0.608 0.439,-0.395 0.652,-1.02 0.652,-1.91 V 2.45 c 0,-0.804 -0.216,-1.398 -0.661,-1.815 C -13.514,0.208 -14.158,0 -15.031,0 h -0.91 c -0.566,0 -1.024,-0.187 -1.363,-0.558 -0.322,-0.355 -0.485,-0.722 -0.485,-1.091 0,-0.463 0.174,-0.882 0.506,-1.215 0.335,-0.334 0.786,-0.503 1.342,-0.503 H 0 c 0.555,0 1.006,0.169 1.343,0.505 0.33,0.331 0.504,0.75 0.504,1.213 0,0.369 -0.163,0.736 -0.488,1.093 C 1.027,-0.192 0.557,0 0,0" style="fill:#040000;fill-opacity:1;fill-rule:nonzero;stroke:none" transform="matrix(1.3333333,0,0,-1.3333333,1073.2409,893.60933)" clip-path="url(#clipPath48)"></path>
    <path id="path49" d="m 0,0 c 0,-0.941 -0.038,-2.139 -0.114,-3.557 -0.073,-1.399 -0.236,-2.764 -0.483,-4.052 -0.193,-0.96 -0.475,-1.865 -0.838,-2.688 -0.354,-0.812 -0.8,-1.551 -1.336,-2.208 -0.502,-0.657 -1.204,-1.213 -2.083,-1.65 -1.555,-0.776 -3.471,-0.891 -5.165,-0.22 -0.751,0.295 -1.39,0.656 -1.869,1.046 -0.758,0.725 -1.372,1.548 -1.822,2.443 -0.458,0.91 -0.812,1.924 -1.054,3.01 -0.296,1.374 -0.483,2.792 -0.557,4.217 -0.076,1.44 -0.115,2.672 -0.115,3.659 0,1.046 0.051,2.367 0.152,3.928 0.098,1.556 0.324,3.112 0.669,4.62 0.289,1.216 0.715,2.301 1.266,3.226 0.534,0.9 1.228,1.631 2.079,2.186 0.404,0.282 0.947,0.519 1.616,0.705 0.679,0.19 1.331,0.287 1.936,0.287 0.696,0 1.379,-0.106 2.031,-0.314 0.649,-0.209 1.21,-0.483 1.661,-0.806 0.794,-0.589 1.458,-1.348 1.973,-2.253 0.529,-0.932 0.944,-2.02 1.238,-3.256 C -0.423,6.907 -0.187,5.42 -0.114,3.901 -0.038,2.347 0,1.034 0,0 m 7.282,9.536 c -0.728,1.495 -1.649,2.882 -2.739,4.121 -1.103,1.25 -2.433,2.292 -3.953,3.096 -1.154,0.612 -2.465,1.089 -3.895,1.417 -2.962,0.678 -6.202,0.652 -9.066,-0.071 -1.485,-0.376 -2.845,-0.9 -4.051,-1.561 -1.31,-0.756 -2.468,-1.689 -3.439,-2.775 -0.961,-1.076 -1.789,-2.237 -2.466,-3.455 -0.78,-1.453 -1.373,-3.087 -1.762,-4.86 -0.387,-1.76 -0.582,-3.594 -0.582,-5.448 0,-1.905 0.209,-3.797 0.621,-5.621 0.413,-1.842 1.045,-3.535 1.886,-5.048 0.723,-1.21 1.564,-2.334 2.5,-3.339 0.948,-1.02 2.071,-1.875 3.344,-2.543 1.189,-0.605 2.527,-1.113 3.977,-1.51 1.459,-0.398 3.016,-0.6 4.625,-0.6 1.656,0 3.243,0.177 4.722,0.527 1.493,0.355 2.838,0.894 3.988,1.6 1.362,0.803 2.57,1.794 3.587,2.945 1.013,1.146 1.869,2.391 2.545,3.7 0.73,1.408 1.271,3.009 1.608,4.762 C 9.066,-3.394 9.235,-1.669 9.235,0 9.235,1.623 9.079,3.289 8.771,4.953 8.46,6.633 7.958,8.176 7.282,9.536" style="fill:#040000;fill-opacity:1;fill-rule:nonzero;stroke:none" transform="matrix(1.3333333,0,0,-1.3333333,1114.3984,874.49347)" clip-path="url(#clipPath50)"></path>
    <path id="path51" d="M 0,0 C 0.405,0.324 0.874,0.581 1.394,0.764 1.912,0.947 2.476,1.04 3.068,1.04 3.614,1.04 4.158,0.956 4.685,0.792 5.187,0.634 5.59,0.421 5.905,0.14 6.372,-0.239 6.803,-0.68 7.183,-1.17 7.54,-1.634 7.814,-2.201 8.006,-2.887 8.193,-3.437 8.338,-4.145 8.436,-4.99 8.534,-5.857 8.584,-6.675 8.584,-7.422 8.584,-8.254 8.509,-9.181 8.362,-10.176 8.22,-11.138 7.981,-11.968 7.638,-12.678 7.455,-13.13 7.2,-13.568 6.881,-13.979 6.562,-14.388 6.222,-14.715 5.87,-14.953 5.51,-15.195 5.088,-15.39 4.617,-15.531 c -1.031,-0.307 -2.33,-0.286 -3.282,0.088 -0.537,0.21 -1.045,0.486 -1.436,0.758 -0.33,0.338 -0.625,0.711 -0.879,1.109 -0.262,0.406 -0.518,0.877 -0.749,1.373 -0.235,0.591 -0.415,1.361 -0.534,2.291 -0.123,0.945 -0.185,1.783 -0.185,2.49 0,0.83 0.074,1.733 0.221,2.682 0.147,0.945 0.318,1.706 0.493,2.223 0.239,0.56 0.504,1.058 0.786,1.481 C -0.677,-0.63 -0.359,-0.282 0,0 m 4.282,-36.721 c -1.716,0 -3.226,0.167 -4.49,0.495 -1.261,0.328 -2.312,0.733 -3.099,1.191 -0.49,0.32 -0.895,0.725 -1.204,1.203 -0.298,0.459 -0.442,0.94 -0.442,1.474 0,0.645 0.193,1.187 0.59,1.656 0.426,0.506 1.041,0.951 1.802,1.315 0.821,0.347 1.805,0.635 2.926,0.855 1.127,0.22 2.446,0.331 3.917,0.331 1.911,0 3.573,-0.189 4.939,-0.561 1.338,-0.366 2.395,-0.849 3.093,-1.393 0.429,-0.43 0.75,-0.804 0.957,-1.113 0.164,-0.246 0.248,-0.613 0.248,-1.09 0,-0.57 -0.141,-1.045 -0.429,-1.455 -0.311,-0.437 -0.768,-0.846 -1.358,-1.214 -0.758,-0.47 -1.767,-0.873 -3,-1.2 -1.237,-0.327 -2.734,-0.494 -4.45,-0.494 M 14.683,1.724 c 0.177,0 0.29,-0.054 0.386,-0.184 0.196,-0.266 0.369,-0.511 0.562,-0.79 0.221,-0.251 0.519,-0.521 0.912,-0.823 0.452,-0.35 1.052,-0.527 1.783,-0.527 0.56,0 1.061,0.066 1.487,0.194 0.473,0.141 0.876,0.388 1.19,0.726 0.395,0.408 0.7,0.839 0.904,1.284 0.209,0.459 0.316,1.031 0.316,1.701 0,0.449 -0.121,0.923 -0.361,1.407 C 21.617,5.208 21.247,5.626 20.752,5.96 20.37,6.205 19.939,6.418 19.469,6.594 18.359,7.002 16.821,6.948 15.609,6.449 14.952,6.18 14.344,5.818 13.778,5.358 13.242,4.876 12.767,4.338 12.364,3.759 12.069,3.333 11.766,2.907 11.454,2.481 L 10.186,3 C 9.6,3.239 8.982,3.433 8.38,3.567 7.548,3.802 6.639,3.979 5.678,4.097 4.718,4.213 3.813,4.271 2.992,4.271 0.931,4.271 -0.995,4.035 -2.731,3.569 -4.494,3.096 -6.004,2.372 -7.201,1.434 c -1.343,-0.967 -2.376,-2.262 -3.07,-3.849 -0.686,-1.568 -1.034,-3.253 -1.034,-5.007 0,-1.192 0.201,-2.391 0.599,-3.561 0.397,-1.168 0.949,-2.221 1.659,-3.153 0.68,-0.801 1.399,-1.495 2.135,-2.062 0.452,-0.349 0.984,-0.707 1.59,-1.071 -0.378,-0.108 -0.754,-0.225 -1.126,-0.351 -0.83,-0.28 -1.543,-0.566 -2.099,-0.84 -0.88,-0.396 -1.568,-0.867 -2.046,-1.398 -0.522,-0.581 -0.787,-1.27 -0.787,-2.047 0,-0.718 0.243,-1.396 0.723,-2.015 0.45,-0.583 0.991,-1.057 1.633,-1.421 0.475,-0.238 1.091,-0.493 1.883,-0.778 0.128,-0.046 0.254,-0.091 0.378,-0.133 -0.449,-0.17 -0.9,-0.349 -1.352,-0.536 -1.024,-0.426 -1.943,-0.93 -2.723,-1.491 -0.716,-0.496 -1.353,-1.169 -1.893,-1.997 -0.565,-0.863 -0.851,-1.816 -0.851,-2.833 0,-0.712 0.181,-1.498 0.538,-2.336 0.364,-0.861 0.898,-1.558 1.596,-2.082 0.734,-0.52 1.586,-0.988 2.532,-1.39 0.941,-0.399 2.046,-0.743 3.275,-1.02 1.344,-0.324 2.82,-0.536 4.387,-0.628 1.553,-0.092 3.339,-0.138 5.309,-0.138 1.929,0 3.714,0.093 5.302,0.276 1.592,0.186 2.998,0.445 4.202,0.774 1.192,0.374 2.21,0.791 3.025,1.239 0.822,0.455 1.59,1.024 2.297,1.709 0.647,0.68 1.192,1.502 1.622,2.442 0.436,0.959 0.657,1.991 0.657,3.066 0,0.874 -0.111,1.646 -0.334,2.299 -0.221,0.645 -0.554,1.27 -0.968,1.826 -0.436,0.687 -0.964,1.274 -1.57,1.747 -0.593,0.459 -1.35,0.886 -2.226,1.259 -0.791,0.378 -1.825,0.723 -3.07,1.028 -1.231,0.3 -2.401,0.522 -3.486,0.662 l -2.772,0.307 c -1.048,0.114 -2.017,0.195 -2.844,0.239 -0.808,0.09 -1.653,0.192 -2.536,0.307 l -2.339,0.298 c -0.4,0.089 -0.773,0.179 -1.122,0.27 -0.286,0.072 -0.529,0.181 -0.678,0.284 -0.217,0.194 -0.406,0.353 -0.543,0.447 0,0.001 -0.031,0.058 -0.031,0.232 0,0.038 0,0.108 0.166,0.217 0.246,0.16 0.529,0.303 0.821,0.417 0.363,0.122 0.894,0.216 1.582,0.28 0.713,0.066 1.27,0.1 1.656,0.1 h 1.746 c 1.231,0 2.429,0.071 3.561,0.209 1.137,0.14 2.136,0.33 2.982,0.568 1.195,0.373 2.289,0.837 3.256,1.378 0.983,0.549 1.86,1.24 2.609,2.059 0.707,0.784 1.282,1.839 1.709,3.137 0.421,1.279 0.635,2.625 0.635,4 0,0.894 -0.093,1.837 -0.275,2.804 -0.191,0.998 -0.51,1.856 -0.933,2.522 -0.321,0.578 -0.74,1.163 -1.246,1.739 -0.41,0.464 -0.85,0.903 -1.314,1.306 0.168,0.408 0.323,0.63 0.432,0.748 0.144,0.155 0.358,0.232 0.655,0.232" style="fill:#040000;fill-opacity:1;fill-rule:nonzero;stroke:none" transform="matrix(1.3333333,0,0,-1.3333333,1149.7148,855.306)" clip-path="url(#clipPath52)"></path>
    <path id="path53" d="m 0,0 c -0.215,0.266 -0.623,0.581 -1.343,0.581 h -10.628 c -0.557,0 -1.028,-0.192 -1.362,-0.558 -0.322,-0.355 -0.485,-0.722 -0.485,-1.091 0,-0.452 0.158,-0.87 0.47,-1.245 0.332,-0.399 0.809,-0.61 1.377,-0.61 h 1.67 c 0.885,0 1.396,-0.201 1.517,-0.597 0.162,-0.532 0.096,-1.106 -0.2,-1.755 l -7.168,-15.521 -7.234,15.254 c -0.391,0.82 -0.51,1.501 -0.35,2.021 0.159,0.52 1.162,0.598 1.745,0.598 h 0.76 c 0.568,0 1.044,0.211 1.376,0.61 0.312,0.375 0.47,0.793 0.47,1.245 0,0.369 -0.163,0.736 -0.487,1.093 -0.332,0.364 -0.803,0.556 -1.359,0.556 h -16.17 c -0.557,0 -1.028,-0.192 -1.362,-0.558 -0.322,-0.355 -0.485,-0.722 -0.485,-1.091 0,-0.452 0.158,-0.87 0.471,-1.245 0.332,-0.399 0.807,-0.61 1.376,-0.61 h 0.987 c 0.975,0 1.749,-0.233 2.302,-0.692 0.593,-0.493 1.133,-1.215 1.599,-2.137 l 11.804,-24.291 -2.259,-4.922 c -0.092,-0.245 -0.244,-0.55 -0.451,-0.902 -0.218,-0.368 -0.423,-0.684 -0.652,-1.003 -0.181,-0.322 -0.408,-0.629 -0.677,-0.912 -0.28,-0.295 -0.564,-0.55 -0.841,-0.758 -0.256,-0.191 -0.561,-0.348 -0.907,-0.465 -0.432,-0.144 -0.678,-0.176 -0.809,-0.176 -0.152,0 -0.334,0.029 -0.539,0.084 -0.168,0.045 -0.316,0.127 -0.437,0.235 -0.001,0 -0.037,0.053 -0.072,0.227 -0.036,0.174 -0.037,0.331 -0.002,0.482 l 0.012,0.101 c 0.001,0.004 0.013,0.093 0.118,0.376 0.123,0.335 0.186,0.675 0.186,1.013 0,0.284 -0.046,0.581 -0.137,0.88 -0.088,0.287 -0.192,0.542 -0.335,0.795 -0.176,0.264 -0.385,0.507 -0.623,0.72 -0.234,0.211 -0.5,0.398 -0.792,0.555 -0.302,0.163 -0.662,0.285 -1.07,0.364 -1.067,0.204 -1.729,0.12 -2.277,-0.004 -0.353,-0.079 -0.681,-0.201 -1.038,-0.398 -0.274,-0.197 -0.551,-0.435 -0.824,-0.705 -0.286,-0.281 -0.522,-0.588 -0.725,-0.955 -0.125,-0.28 -0.214,-0.634 -0.272,-1.077 -0.055,-0.417 -0.08,-0.748 -0.08,-0.994 0,-0.328 0.068,-0.734 0.21,-1.242 0.143,-0.519 0.339,-0.949 0.603,-1.301 0.16,-0.193 0.374,-0.423 0.643,-0.69 0.258,-0.255 0.518,-0.5 0.817,-0.765 0.329,-0.248 0.688,-0.471 1.066,-0.666 0.38,-0.195 0.699,-0.338 1.067,-0.463 0.249,-0.044 0.635,-0.123 1.16,-0.236 0.579,-0.122 1.076,-0.181 1.519,-0.181 0.281,0 0.667,0.035 1.178,0.107 0.494,0.069 0.935,0.153 1.299,0.247 0.429,0.098 0.938,0.254 1.511,0.465 0.607,0.224 1.117,0.492 1.493,0.784 0.481,0.336 0.965,0.748 1.441,1.224 0.476,0.475 0.905,0.982 1.279,1.511 0.256,0.37 0.526,0.773 0.808,1.212 0.294,0.458 0.55,0.931 0.756,1.393 L -4.557,-5.06 c 0.227,0.492 0.577,0.994 1.042,1.496 0.399,0.431 0.985,0.641 1.792,0.641 h 0.38 c 0.734,0 1.144,0.346 1.358,0.635 0.274,0.37 0.413,0.78 0.413,1.22 C 0.428,-0.712 0.284,-0.353 0,0" style="fill:#040000;fill-opacity:1;fill-rule:nonzero;stroke:none" transform="matrix(1.3333333,0,0,-1.3333333,1231.6081,851.84373)" clip-path="url(#clipPath54)"></path>
  </g>
</svg>